<svg width="300px" height="100px" id="Layer_1" data-name="Layer 1" xmlns="http://www.w3.org/2000/svg" viewBox="0 0 127.14 40"><defs><style>.cls-1{fill:none;stroke:#fff;stroke-miterlimit:10;stroke-width:2px;}.cls-2{fill:#fff;}.cls-3{font-size:26.88px;font-family:ITCKabelStd-Medium, ITC Kabel Std;font-weight:500;}.cls-3,.cls-4{fill:#e41f52;}.cls-4{font-size:37.99px;font-family:Kabob;}</style></defs><title>logo-white</title><path id="rect2" class="cls-1" d="M18.32,1.6h105.6c1.85,0,3.35,1.13,3.35,2.53V23.91" transform="translate(-1.13 6.5)"/><path id="rect1" class="cls-1" d="M116.44,29.11H5.48c-1.85,0-3.35-1.14-3.35-2.53V6.35" transform="translate(-1.13 6.5)"/><g id="text-in"><path class="cls-2" d="M118.75,29.5V28.36h1.34V29.5Z" transform="translate(-1.13 6.5)"/><path class="cls-2" d="M121.06,24.75h1.25v.83h-1.25Zm0,1.38h1.25V29.5h-1.25Z" transform="translate(-1.13 6.5)"/><path class="cls-2" d="M123.43,27c0-.28,0-.6,0-.85h1.2a2.82,2.82,0,0,1,0,.43,1.5,1.5,0,0,1,1.3-.51c.9,0,1.49.46,1.49,1.31V29.5h-1.24v-2c0-.38-.17-.65-.72-.65s-.83.22-.83.82V29.5h-1.24Z" transform="translate(-1.13 6.5)"/></g><text id="text-venues" class="cls-3" transform="translate(23.71 29.56) scale(1.41 1)">enues</text><g id="text-our"><path class="cls-2" d="M6.16,2.93c0,1-.88,1.77-2.43,1.77S1.32,4,1.32,3s.92-1.78,2.47-1.78S6.16,1.87,6.16,2.93Zm-3.46,0A1,1,0,0,0,3.76,4a.94.94,0,0,0,1-1,.93.93,0,0,0-1-1A.93.93,0,0,0,2.7,2.94Z" transform="translate(-1.13 6.5)"/><path class="cls-2" d="M11.41,3.64c0,.33,0,.68,0,1H10.09c0-.09,0-.27,0-.39A1.64,1.64,0,0,1,8.7,4.7c-1,0-1.63-.42-1.63-1.25V1.25H8.42v2c0,.37.17.68.76.68s.87-.23.87-.9V1.25h1.36Z" transform="translate(-1.13 6.5)"/><path class="cls-2" d="M12.63,2.16c0-.33,0-.63,0-.91H14a4.18,4.18,0,0,1,0,.59,1.69,1.69,0,0,1,1.57-.67v.89c-1,0-1.57.17-1.57,1.09V4.62H12.63Z" transform="translate(-1.13 6.5)"/></g><text class="cls-4" transform="translate(3.2 31.91) scale(1.23 1)">v</text></svg>