<svg id="Layer_1" width="200px"  height="50px" data-name="Layer 1" xmlns="http://www.w3.org/2000/svg" viewBox="0 0 136.01 40"><defs><style>.cls-1{fill:none;stroke:#000;stroke-miterlimit:10;stroke-width:2px;}.cls-2{font-size:26.88px;font-family:ITCKabelStd-Medium, ITC Kabel Std;font-weight:500;}.cls-2,.cls-3{fill:#e41f52;}.cls-3{font-size:37.99px;font-family:Kabob;}</style></defs><title>logo-dark</title><path id="rect2" class="cls-1" d="M19.55,1.6H132.63c2,0,3.59,1.13,3.59,2.53V23.91" transform="translate(-1.21 6.5)"/><path id="rect1" class="cls-1" d="M124.62,29.11H5.8c-2,0-3.59-1.14-3.59-2.53V6.35" transform="translate(-1.21 6.5)"/><g id="text-in"><path d="M127.1,29.5V28.36h1.42V29.5Z" transform="translate(-1.21 6.5)"/><path d="M129.57,24.75h1.33v.83h-1.33Zm0,1.38h1.33V29.5h-1.33Z" transform="translate(-1.21 6.5)"/><path d="M132.1,27c0-.28,0-.6,0-.85h1.29a2,2,0,0,1,.05.43,1.69,1.69,0,0,1,1.4-.51c1,0,1.59.46,1.59,1.31V29.5h-1.33v-2c0-.38-.18-.65-.77-.65s-.89.22-.89.82V29.5H132.1Z" transform="translate(-1.21 6.5)"/></g><text id="text-venues" class="cls-2" transform="translate(25.32 29.56) scale(1.51 1)">enues</text><g id="text-our"><path d="M6.53,2.93c0,1-1,1.77-2.61,1.77S1.34,4,1.34,3,2.32,1.17,4,1.17,6.53,1.87,6.53,2.93Zm-3.71,0A1,1,0,0,0,4,4a1,1,0,0,0,1.11-1c0-.71-.4-1-1.13-1A1,1,0,0,0,2.82,2.94Z" transform="translate(-1.21 6.5)"/><path d="M12.15,3.64c0,.33,0,.68,0,1H10.73c0-.09,0-.27,0-.39a1.82,1.82,0,0,1-1.44.47C8.18,4.7,7.5,4.28,7.5,3.45V1.25H9v2c0,.37.18.68.81.68s.93-.23.93-.9V1.25h1.46Z" transform="translate(-1.21 6.5)"/><path d="M13.45,2.16c0-.33,0-.63,0-.91h1.43a4.18,4.18,0,0,1,0,.59,1.88,1.88,0,0,1,1.68-.67v.89c-1.05,0-1.68.17-1.68,1.09V4.62H13.45Z" transform="translate(-1.21 6.5)"/></g><text class="cls-3" transform="translate(3.36 31.91) scale(1.32 1)">v</text></svg>